<svg width="14" height="11" viewBox="0 0 14 11" fill="none" xmlns="http://www.w3.org/2000/svg">
<path fill-rule="evenodd" clip-rule="evenodd" d="M14.0009 5.66954C14.0009 5.53011 13.9482 5.3964 13.8544 5.29781C13.7607 5.19922 13.6335 5.14383 13.5009 5.14383H1.70789L4.85489 1.83603C4.90138 1.78715 4.93826 1.72912 4.96342 1.66526C4.98858 1.60139 5.00152 1.53294 5.00152 1.46382C5.00152 1.39469 4.98858 1.32625 4.96342 1.26238C4.93826 1.19852 4.90138 1.14049 4.85489 1.09161C4.80841 1.04273 4.75322 1.00396 4.69248 0.977507C4.63174 0.951054 4.56664 0.937439 4.50089 0.937439C4.43515 0.937439 4.37005 0.951054 4.30931 0.977507C4.24857 1.00396 4.19338 1.04273 4.14689 1.09161L0.146894 5.29734C0.100331 5.34617 0.0633877 5.40418 0.0381812 5.46805C0.0129748 5.53192 0 5.60039 0 5.66954C0 5.73869 0.0129748 5.80716 0.0381812 5.87103C0.0633877 5.9349 0.100331 5.99291 0.146894 6.04175L4.14689 10.2475C4.19338 10.2964 4.24857 10.3351 4.30931 10.3616C4.37005 10.388 4.43515 10.4016 4.50089 10.4016C4.56664 10.4016 4.63174 10.388 4.69248 10.3616C4.75322 10.3351 4.80841 10.2964 4.85489 10.2475C4.90138 10.1986 4.93826 10.1406 4.96342 10.0767C4.98858 10.0128 5.00152 9.94439 5.00152 9.87527C5.00152 9.80614 4.98858 9.73769 4.96342 9.67383C4.93826 9.60997 4.90138 9.55194 4.85489 9.50306L1.70789 6.19526H13.5009C13.6335 6.19526 13.7607 6.13987 13.8544 6.04128C13.9482 5.94269 14.0009 5.80897 14.0009 5.66954Z" fill="#A9A9A9"/>
</svg>
